<svg width="213" height="40" viewBox="0 0 213 40" fill="none" xmlns="http://www.w3.org/2000/svg">
    <g clip-path="url(#clip0_13899_7082)">
        <path
            d="M0 31.2912V1.64206H7.9034L14.1636 12.516C15.9634 15.6452 17.6849 19.322 19.0934 22.6859H19.1716C18.7804 18.7744 18.6239 14.7847 18.6239 10.3256V1.64206H24.8839V31.2912H17.763L11.3465 19.8696C9.54667 16.6622 7.59039 12.9072 6.10362 9.38681H5.94711C6.18186 13.2984 6.26012 17.5227 6.26012 22.3729V31.2912H0Z"
            fill="#0072BC" />
        <path
            d="M37.641 3.75536C37.641 5.63287 36.2325 7.11924 33.9632 7.11924C31.8503 7.11924 30.4418 5.63287 30.4418 3.75536C30.4418 1.87785 31.8503 0.391479 34.0414 0.391479C36.2325 0.391479 37.5627 1.79962 37.641 3.75536ZM30.5983 31.2922V9.70083H37.4062V31.214H30.5983V31.2922Z"
            fill="#0072BC" />
        <path
            d="M59.2355 30.7451C57.9835 31.2927 55.7142 31.762 53.132 31.762C46.0893 31.762 41.5507 27.5377 41.5507 20.7317C41.5507 14.4733 45.9328 9.31009 53.9927 9.31009C55.7925 9.31009 57.7488 9.62302 59.1573 10.1706L58.0618 15.1773C57.2792 14.7862 56.0272 14.4733 54.2275 14.4733C50.6279 14.4733 48.3585 16.9766 48.3585 20.4969C48.3585 24.4867 51.0192 26.5207 54.3057 26.5207C55.949 26.5207 57.201 26.2078 58.2183 25.8166L59.2355 30.7451Z"
            fill="#0072BC" />
        <path
            d="M62.9164 0H69.7243V12.2821H69.8026C70.5069 11.3433 71.3676 10.6393 72.4632 10.0916C73.4804 9.54404 74.7324 9.23112 75.9845 9.23112C80.2883 9.23112 83.6531 12.2039 83.6531 18.6969V31.2919H76.8452V19.4011C76.8452 16.5847 75.828 14.6289 73.3239 14.6289C71.5241 14.6289 70.4286 15.8025 69.9591 16.9759C69.8026 17.3671 69.7243 17.9928 69.7243 18.4622V31.2138H62.9164V0Z"
            fill="#0072BC" />
        <path
            d="M110.568 20.2624C110.568 28.1635 104.934 31.7621 99.0649 31.7621C92.7266 31.7621 87.7967 27.616 87.7967 20.6535C87.7967 13.6911 92.4135 9.23196 99.4562 9.23196C106.186 9.23196 110.568 13.7693 110.568 20.2624ZM94.8394 20.4971C94.8394 24.1739 96.4044 26.9901 99.2997 26.9901C101.96 26.9901 103.603 24.4086 103.603 20.4971C103.603 17.2896 102.351 14.0822 99.2997 14.0822C96.0131 14.004 94.8394 17.2896 94.8394 20.4971Z"
            fill="#0072BC" />
        <path
            d="M115.264 24.3296C117.064 25.2684 119.881 26.2072 122.776 26.2072C125.907 26.2072 127.549 24.9554 127.549 22.9998C127.549 21.2005 126.141 20.1052 122.541 18.8535C117.533 17.1325 114.247 14.3945 114.247 10.0918C114.247 5.00686 118.55 1.1736 125.594 1.1736C129.037 1.1736 131.462 1.87767 133.261 2.65997L131.775 8.05782C130.601 7.51021 128.411 6.64968 125.515 6.64968C122.541 6.64968 121.133 7.9796 121.133 9.54419C121.133 11.4217 122.776 12.2822 126.689 13.6904C132.009 15.6461 134.436 18.3841 134.436 22.6086C134.436 27.5371 130.601 31.8396 122.307 31.8396C118.863 31.8396 115.499 30.9009 113.856 29.9622L115.264 24.3296Z"
            fill="#2AAC27" />
        <path
            d="M138.663 0H145.471V12.2821H145.548C146.253 11.3433 147.114 10.6393 148.209 10.0916C149.227 9.54404 150.478 9.23112 151.73 9.23112C156.035 9.23112 159.399 12.2039 159.399 18.6969V31.2919H152.592V19.4011C152.592 16.5847 151.574 14.6289 149.071 14.6289C147.27 14.6289 146.174 15.8025 145.627 16.9759C145.471 17.3671 145.392 17.9928 145.392 18.4622V31.2138H138.584V0H138.663Z"
            fill="#2AAC27" />
        <path
            d="M186.316 20.2624C186.316 28.1635 180.682 31.7621 174.813 31.7621C168.475 31.7621 163.545 27.616 163.545 20.6535C163.545 13.6911 168.162 9.23196 175.205 9.23196C181.934 9.23196 186.316 13.7693 186.316 20.2624ZM170.587 20.4971C170.587 24.1739 172.152 26.9901 175.048 26.9901C177.709 26.9901 179.352 24.4086 179.352 20.4971C179.352 17.2896 178.1 14.0822 175.048 14.0822C171.839 14.004 170.587 17.2896 170.587 20.4971Z"
            fill="#2AAC27" />
        <path
            d="M190.541 16.9767C190.541 14.1605 190.463 11.7353 190.384 9.70134H196.254L196.566 12.7524H196.645C198.288 10.4836 200.714 9.23196 203.922 9.23196C208.695 9.23196 213 13.2999 213 20.1841C213 28.0072 207.913 31.6839 203.062 31.6839C200.479 31.6839 198.367 30.6669 197.427 29.2588H197.349V39.9764H190.541V16.9767ZM197.349 22.0616C197.349 22.5311 197.427 23.0005 197.505 23.4698C197.975 25.2691 199.54 26.6772 201.497 26.6772C204.392 26.6772 206.191 24.2521 206.191 20.5753C206.191 17.1332 204.627 14.5516 201.653 14.5516C199.696 14.5516 197.975 15.9598 197.584 17.9155C197.505 18.3066 197.427 18.6978 197.427 19.0889V22.0616H197.349Z"
            fill="#2AAC27" />
    </g>
    <defs>
        <clipPath id="clip0_13899_7082">
            <rect width="213" height="40" fill="white" />
        </clipPath>
    </defs>
</svg>